<svg version="1.1" id="Layer_1" xmlns="http://www.w3.org/2000/svg" xmlns:xlink="http://www.w3.org/1999/xlink" x="0px" y="0px"
	 width="100%" viewBox="0 0 512 512" enable-background="new 0 0 512 512" xml:space="preserve">
<path fill="#000000" opacity="1.000000" stroke="none" 
	d="
M513.000000,186.000000 
	C513.000000,295.306763 513.000000,404.113525 513.000000,512.960144 
	C342.401550,512.960144 171.803116,512.960144 1.102331,512.960144 
	C1.102331,342.443268 1.102331,171.886444 1.102331,1.164816 
	C171.666534,1.164816 342.333252,1.164816 513.000000,1.164816 
	C513.000000,62.530186 513.000000,124.015091 513.000000,186.000000 
M53.997581,212.718063 
	C49.943703,217.006958 49.375591,222.340240 50.008320,227.759842 
	C51.631706,241.664841 52.703487,255.706833 55.505604,269.384735 
	C59.803837,290.365631 67.003471,310.415466 77.029472,329.525177 
	C88.634285,351.644012 103.932922,370.339752 123.877266,385.361237 
	C129.448074,389.557007 135.212723,392.058960 142.836349,390.798889 
	C143.472885,391.142242 144.109421,391.485596 145.250397,392.235870 
	C146.919785,394.866272 148.016632,398.913391 150.365448,399.862671 
	C157.542297,402.763153 165.084900,405.591034 172.699295,406.379303 
	C183.836823,407.532288 195.203140,407.564117 206.394043,406.851135 
	C222.218887,405.842834 235.146683,398.323395 243.766632,385.072754 
	C255.835876,366.519867 256.273560,345.694366 251.918381,324.953247 
	C248.629425,309.289948 242.748413,294.184692 239.088638,278.580688 
	C236.645126,268.162384 235.534409,257.339355 234.843796,246.631866 
	C234.315430,238.439896 234.506226,229.991837 235.924164,221.929779 
	C238.500427,207.281601 242.572876,192.900711 245.320160,178.276627 
	C246.591461,171.509491 246.334198,164.436340 246.539078,157.495117 
	C246.654327,153.591003 244.814362,150.816513 240.793900,149.524048 
	C240.793900,149.524048 240.917114,149.143341 241.039764,148.196671 
	C243.746719,127.998192 230.020370,117.729042 215.315231,107.210045 
	C217.326660,107.104446 218.287140,106.940491 219.226349,107.021881 
	C231.749344,108.107048 240.449112,101.669472 246.392426,91.769859 
	C256.380554,75.132980 256.682770,57.066822 249.976929,39.440086 
	C242.134537,18.825840 223.092484,14.662955 204.930710,23.810959 
	C195.751999,28.434227 191.169647,37.760582 188.356552,48.221352 
	C183.600586,32.736443 176.333038,21.546373 157.649353,22.804653 
	C138.533859,24.092016 136.094788,38.349041 132.506561,52.973366 
	C125.830612,41.605400 116.780876,37.692982 104.244621,38.672874 
	C95.381828,39.365635 87.043312,49.383690 86.288483,56.630020 
	C85.681961,62.452629 85.190620,68.287239 84.661041,73.978241 
	C81.941559,73.091225 79.499306,71.956932 76.937675,71.515640 
	C63.513252,69.202980 51.090717,73.054764 52.001228,91.377495 
	C52.290844,97.205650 53.124405,103.006783 53.727333,109.001953 
	C52.115395,109.001953 49.658974,108.912277 47.211056,109.018471 
	C39.310875,109.361183 31.966991,114.296379 31.371452,120.246048 
	C30.819088,125.764366 30.612041,131.407501 31.103905,136.919754 
	C31.921350,146.080765 41.077324,153.959961 50.230923,154.040054 
	C54.143024,154.074280 58.055672,154.045761 62.614574,154.045761 
	C61.467590,157.016815 60.631752,159.154480 59.815865,161.299728 
	C54.287910,175.834656 50.932423,190.815201 51.143234,206.421677 
	C51.168541,208.294861 53.003231,210.143631 53.997581,212.718063 
M419.628967,435.039642 
	C423.879364,435.497040 426.737305,433.839539 429.050262,430.088257 
	C442.882385,407.654724 452.627502,383.538300 458.115479,357.842255 
	C460.668915,345.886505 461.848419,333.610901 463.197205,321.430054 
	C465.636566,299.399902 463.231842,277.735107 457.265045,256.450928 
	C455.865204,251.457413 454.004822,246.593018 452.234192,241.304565 
	C454.312317,241.166702 455.620911,241.089905 456.927856,240.991257 
	C460.874878,240.693329 465.133240,241.236938 468.709320,239.924362 
	C479.401276,235.999985 484.945862,225.709946 483.777435,213.498093 
	C482.518585,200.341156 477.807892,196.035950 464.636444,195.937469 
	C462.934082,195.924759 461.233307,195.700928 460.551941,195.650452 
	C461.087982,188.539551 461.421204,182.149841 462.079407,175.793808 
	C463.488922,162.182205 449.523590,155.228699 439.508087,157.629684 
	C436.082458,158.450912 432.655090,159.264801 429.029510,160.129501 
	C428.926453,145.948151 429.245880,131.437225 413.600464,126.114693 
	C400.606171,121.694077 389.088684,126.073112 381.259064,139.781601 
	C378.724731,124.591911 375.104279,111.436958 358.510773,109.155418 
	C339.851105,106.589767 330.474854,117.399857 325.643280,134.338394 
	C325.235565,133.313324 325.100861,133.017075 324.998047,132.710114 
	C320.674744,119.807709 313.877594,108.802544 299.350525,106.409241 
	C278.201019,102.924911 265.080505,113.969650 261.249664,135.418411 
	C259.763123,143.741562 260.292664,152.623352 261.161621,161.122055 
	C262.464111,173.860382 271.197998,189.454971 286.100616,192.848389 
	C289.842072,193.700333 293.705444,194.016769 297.765625,194.616669 
	C278.369080,206.126801 268.584808,223.290833 267.320496,245.348999 
	C266.398132,261.441223 270.536499,276.883362 274.421356,292.283600 
	C274.886353,294.126892 277.372101,295.460876 278.922211,297.029907 
	C279.683929,297.800903 280.448029,298.569519 281.251038,299.497314 
	C281.251038,299.497314 281.208527,299.654724 281.127228,300.493622 
	C280.421051,305.007233 279.301727,309.504486 279.121796,314.038971 
	C278.932037,318.820007 280.020203,323.647156 279.888794,328.435974 
	C279.301147,349.850464 274.304871,370.474182 267.739594,390.709991 
	C260.496887,413.033844 256.123291,435.444366 263.944000,458.496399 
	C269.396667,474.568451 280.162384,485.412598 296.351562,491.175018 
	C307.093170,494.998474 318.041748,493.623596 328.952911,494.071198 
	C341.229767,494.574890 352.628998,491.027069 363.780426,486.587646 
	C381.339142,479.597473 396.115723,468.508484 409.433563,455.224030 
	C414.066010,450.603180 417.283417,445.846039 416.525818,438.670959 
	C417.272064,437.463226 418.018341,436.255493 419.628967,435.039642 
z"/>
<path fill="#8F90FA" opacity="1.000000" stroke="none" 
	d="
M240.917114,149.143341 
	C240.917114,149.143341 240.793900,149.524048 240.451630,149.919632 
	C239.319534,151.247482 238.493134,152.151520 237.747650,153.117966 
	C236.256210,155.051437 233.495911,157.059082 233.554001,158.966217 
	C233.971619,172.678696 230.907043,185.788696 227.356995,198.812759 
	C221.361328,220.809021 218.865295,243.134857 223.265930,265.572693 
	C226.750244,283.338440 232.249512,300.699890 236.181473,318.390381 
	C238.475876,328.713348 240.956390,339.363861 240.723038,349.808258 
	C240.104645,377.484528 222.058716,394.410889 194.436508,395.088135 
	C183.298737,395.361206 172.284134,394.033752 162.161163,389.619995 
	C155.327545,386.640503 150.171204,388.137512 144.745941,391.828949 
	C144.109421,391.485596 143.472885,391.142242 142.481094,390.374512 
	C143.336029,382.495697 139.360184,378.514435 133.463379,374.574432 
	C120.971725,366.227936 110.560616,355.517151 102.327499,342.890717 
	C103.200951,342.124878 103.966240,341.631775 104.339294,340.930176 
	C115.890533,319.204407 128.167664,297.821533 138.722565,275.620270 
	C151.020950,249.751740 160.650818,222.679779 167.667358,194.908920 
	C174.617950,167.399017 180.035675,139.501831 186.521759,111.771202 
	C203.274475,115.631050 217.609512,122.802582 226.635971,137.668121 
	C229.193604,141.880264 231.507431,145.222229 236.719864,145.024338 
	C236.666016,145.303680 236.767136,145.446243 236.868256,145.588821 
	C236.833832,145.327988 236.799408,145.067154 237.108490,144.912125 
	C238.607025,146.393066 239.762070,147.768204 240.917114,149.143341 
M231.055557,367.478058 
	C235.072174,361.232727 236.905212,354.438568 235.349075,347.116699 
	C235.058243,345.748322 232.803833,344.797241 231.455597,343.653595 
	C230.600052,345.053558 228.914764,346.525085 229.028229,347.841522 
	C229.613205,354.627991 228.098145,360.592926 223.931747,366.059235 
	C223.201340,367.017517 224.093063,369.212189 224.235641,370.835907 
	C225.741257,370.683899 227.325424,370.763763 228.722214,370.290558 
	C229.524338,370.018799 230.022659,368.850342 231.055557,367.478058 
z"/>
<path fill="#B2B1F8" opacity="1.000000" stroke="none" 
	d="
M281.208527,299.654724 
	C281.208527,299.654724 281.251038,299.497314 281.524475,299.212189 
	C281.680939,297.789978 281.563965,296.652893 281.442230,295.469971 
	C287.499786,292.705017 288.041870,291.512268 286.424927,284.797546 
	C285.061096,279.134003 283.644897,273.478424 282.474670,267.773651 
	C275.087738,231.762695 289.656799,208.082489 325.191620,198.610123 
	C345.564728,193.179337 365.811798,194.574982 385.778198,200.808395 
	C396.650269,204.202591 406.870575,208.956451 415.003113,217.132965 
	C412.378418,226.011948 410.738220,234.907593 407.606750,243.242981 
	C400.358948,262.535217 392.750488,281.711029 384.633606,300.653534 
	C369.988098,334.832031 352.065674,367.306763 331.379578,398.181488 
	C320.381653,414.596283 308.432343,430.373596 296.601318,446.239197 
	C294.913879,442.514709 293.715057,438.904724 292.085052,435.501282 
	C291.292480,433.846375 289.693787,432.577576 288.460052,431.133972 
	C287.512177,432.944885 285.396515,435.115051 285.823517,436.502960 
	C287.457916,441.815338 289.909698,446.876251 291.880981,452.318390 
	C288.756317,456.554779 285.807007,460.503815 282.554504,464.260986 
	C271.670776,448.061676 270.864349,430.719635 275.580414,412.782379 
	C279.342682,398.472839 283.844666,384.352448 287.397003,369.994385 
	C292.059601,351.148895 294.229004,331.985809 291.830017,312.576721 
	C291.524048,310.101501 289.807587,306.050201 288.272461,305.815369 
	C284.158936,305.186127 282.508270,302.905731 281.208527,299.654724 
M306.663361,218.311066 
	C305.767700,220.439270 304.383881,222.513596 304.140991,224.713852 
	C303.967377,226.286835 305.323944,228.028748 305.997711,229.695282 
	C307.486633,228.567383 309.817474,227.725784 310.315643,226.260941 
	C312.255646,220.556473 315.822449,217.095688 321.615540,215.411652 
	C323.216003,214.946411 324.337097,212.832077 325.678101,211.474350 
	C323.776245,210.658340 321.250916,208.635666 320.082611,209.239334 
	C315.506714,211.603729 311.359253,214.797272 306.663361,218.311066 
z"/>
<path fill="#8F90FA" opacity="1.000000" stroke="none" 
	d="
M296.912506,446.438690 
	C308.432343,430.373596 320.381653,414.596283 331.379578,398.181488 
	C352.065674,367.306763 369.988098,334.832031 384.633606,300.653534 
	C392.750488,281.711029 400.358948,262.535217 407.606750,243.242981 
	C410.738220,234.907593 412.378418,226.011948 415.320984,217.209839 
	C427.440094,226.439926 435.501587,238.337051 441.062592,251.960922 
	C452.444244,279.844727 453.083252,308.734192 448.421234,337.965332 
	C443.566284,368.406036 433.268372,396.883911 416.850647,423.098267 
	C415.755890,424.846283 415.910370,427.687988 416.231232,429.913269 
	C416.490173,431.709198 417.877716,433.342377 418.764587,435.047729 
	C418.018341,436.255493 417.272064,437.463226 415.923828,438.684357 
	C408.959595,436.140350 404.943481,438.828613 400.390106,443.553650 
	C393.274384,450.937744 385.427856,457.873077 376.975403,463.661713 
	C357.749329,476.828705 336.456421,483.792786 312.834442,480.972778 
	C300.754486,479.530670 289.930634,475.251343 282.857697,464.452850 
	C285.807007,460.503815 288.756317,456.554779 292.161774,452.484436 
	C295.203979,454.415955 297.602844,456.818390 300.466949,458.351929 
	C301.635681,458.977692 303.812836,457.720093 305.531189,457.319336 
	C304.931641,455.797394 304.674683,453.975403 303.660217,452.816772 
	C301.630402,450.498627 299.185822,448.543610 296.912506,446.438690 
M435.851715,255.642105 
	C435.376984,254.400467 435.214813,252.846512 434.356812,251.987900 
	C432.950256,250.580307 431.091675,249.624466 429.423706,248.478104 
	C429.015381,250.476883 427.903564,252.637329 428.319397,254.446701 
	C430.212708,262.684784 432.611786,270.805145 434.658173,279.010437 
	C435.280487,281.505615 435.491394,284.610718 438.870056,283.620483 
	C440.104919,283.258575 441.447998,279.897766 441.134155,278.202698 
	C439.776825,270.872253 437.824341,263.652039 435.851715,255.642105 
z"/>
<path fill="#1A193E" opacity="1.000000" stroke="none" 
	d="
M419.196777,435.043701 
	C417.877716,433.342377 416.490173,431.709198 416.231232,429.913269 
	C415.910370,427.687988 415.755890,424.846283 416.850647,423.098267 
	C433.268372,396.883911 443.566284,368.406036 448.421234,337.965332 
	C453.083252,308.734192 452.444244,279.844727 441.062592,251.960922 
	C435.501587,238.337051 427.440094,226.439926 415.628052,216.972000 
	C406.870575,208.956451 396.650269,204.202591 385.778198,200.808395 
	C365.811798,194.574982 345.564728,193.179337 325.191620,198.610123 
	C289.656799,208.082489 275.087738,231.762695 282.474670,267.773651 
	C283.644897,273.478424 285.061096,279.134003 286.424927,284.797546 
	C288.041870,291.512268 287.499786,292.705017 281.442230,295.469971 
	C281.563965,296.652893 281.680939,297.789978 281.504517,299.133148 
	C280.448029,298.569519 279.683929,297.800903 278.922211,297.029907 
	C277.372101,295.460876 274.886353,294.126892 274.421356,292.283600 
	C270.536499,276.883362 266.398132,261.441223 267.320496,245.348999 
	C268.584808,223.290833 278.369080,206.126801 297.765625,194.616669 
	C293.705444,194.016769 289.842072,193.700333 286.100616,192.848389 
	C271.197998,189.454971 262.464111,173.860382 261.161621,161.122055 
	C260.292664,152.623352 259.763123,143.741562 261.249664,135.418411 
	C265.080505,113.969650 278.201019,102.924911 299.350525,106.409241 
	C313.877594,108.802544 320.674744,119.807709 324.998047,132.710114 
	C325.100861,133.017075 325.235565,133.313324 325.643280,134.338394 
	C330.474854,117.399857 339.851105,106.589767 358.510773,109.155418 
	C375.104279,111.436958 378.724731,124.591911 381.259064,139.781601 
	C389.088684,126.073112 400.606171,121.694077 413.600464,126.114693 
	C429.245880,131.437225 428.926453,145.948151 429.029510,160.129501 
	C432.655090,159.264801 436.082458,158.450912 439.508087,157.629684 
	C449.523590,155.228699 463.488922,162.182205 462.079407,175.793808 
	C461.421204,182.149841 461.087982,188.539551 460.551941,195.650452 
	C461.233307,195.700928 462.934082,195.924759 464.636444,195.937469 
	C477.807892,196.035950 482.518585,200.341156 483.777435,213.498093 
	C484.945862,225.709946 479.401276,235.999985 468.709320,239.924362 
	C465.133240,241.236938 460.874878,240.693329 456.927856,240.991257 
	C455.620911,241.089905 454.312317,241.166702 452.234192,241.304565 
	C454.004822,246.593018 455.865204,251.457413 457.265045,256.450928 
	C463.231842,277.735107 465.636566,299.399902 463.197205,321.430054 
	C461.848419,333.610901 460.668915,345.886505 458.115479,357.842255 
	C452.627502,383.538300 442.882385,407.654724 429.050262,430.088257 
	C426.737305,433.839539 423.879364,435.497040 419.196777,435.043701 
M429.926636,209.794266 
	C429.926636,209.794266 429.652679,209.769043 429.652679,209.769043 
	C429.652679,209.769043 430.006165,209.995438 430.300446,210.597046 
	C433.639435,214.408371 436.978424,218.219681 440.701202,222.469070 
	C441.279755,217.657059 441.777557,213.516663 442.286713,209.281906 
	C437.845520,209.543991 433.919983,209.775650 429.926636,209.794266 
M317.880066,186.023514 
	C321.448883,185.337021 324.989990,184.328613 328.591217,184.018707 
	C345.984680,182.521805 363.377197,181.674255 380.656952,185.334641 
	C382.192139,185.659851 383.855988,185.377823 384.473450,185.377823 
	C381.557953,178.712799 378.740631,172.272171 375.907684,165.795868 
	C370.788269,175.657761 362.282135,181.152603 350.559906,180.877258 
	C338.513306,180.594284 331.192017,173.700867 327.313812,163.124435 
	C324.755676,168.993088 322.312927,174.680206 319.792542,180.332687 
	C318.940765,182.242950 317.892303,184.065506 316.418976,185.926636 
	C315.989136,186.071228 315.559296,186.215820 315.129456,186.360413 
	C315.250397,186.575348 315.371338,186.790298 315.492310,187.005249 
	C316.005280,186.685287 316.518250,186.365326 317.880066,186.023514 
M296.063477,180.601303 
	C302.385986,179.597366 306.658386,175.669037 309.385559,170.289154 
	C316.768616,155.724823 316.238892,141.213501 307.117706,127.663895 
	C298.711761,115.176872 285.474670,116.050888 277.858582,129.071259 
	C270.570587,141.530731 271.587433,160.668869 280.238586,172.199997 
	C283.985657,177.194473 288.628540,180.760681 296.063477,180.601303 
M366.486115,151.749329 
	C368.468445,143.174515 368.196167,134.851654 363.065826,127.341820 
	C358.783691,121.073517 352.429047,120.206894 346.781158,124.806671 
	C336.682709,133.031082 334.897034,153.732193 343.443390,163.501312 
	C347.873474,168.565247 354.055847,169.417847 358.720673,164.567184 
	C361.930939,161.229034 363.780975,156.582779 366.486115,151.749329 
M397.889435,141.296463 
	C390.425598,149.045868 388.078033,158.165222 391.456543,168.338760 
	C394.320099,176.961807 402.281952,178.710739 408.543854,172.149826 
	C415.519745,164.840851 417.557892,155.978897 414.627533,146.330826 
	C412.087708,137.968445 405.895660,136.035431 397.889435,141.296463 
M440.355652,195.055695 
	C446.381805,190.883499 449.618561,185.196594 449.294006,177.804871 
	C449.010925,171.357422 444.231415,168.685181 438.582581,171.894485 
	C432.540405,175.327301 429.262268,180.766922 428.849640,187.684052 
	C428.385925,195.457245 432.419983,198.234680 440.355652,195.055695 
M454.059052,223.046524 
	C456.270874,228.122284 459.234070,229.406235 463.690948,226.987106 
	C468.114227,224.586227 470.538177,220.698029 470.758026,215.712250 
	C471.005096,210.110519 466.368225,207.134140 461.340240,209.699249 
	C456.333496,212.253540 453.804871,216.511658 454.059052,223.046524 
M401.529938,191.987381 
	C406.467316,194.429474 411.404694,196.871582 416.536133,199.409668 
	C416.233673,194.556427 415.969238,190.313431 415.687469,185.792801 
	C412.305756,186.891907 409.253235,188.290894 406.058136,188.806778 
	C402.931061,189.311691 399.658661,188.916702 396.450012,188.916702 
	C396.421753,189.218475 396.393463,189.520233 396.365173,189.822006 
	C397.849792,190.476868 399.334381,191.131744 401.529938,191.987381 
z"/>
<path fill="#1A193E" opacity="1.000000" stroke="none" 
	d="
M236.874832,144.887558 
	C231.507431,145.222229 229.193604,141.880264 226.635971,137.668121 
	C217.609512,122.802582 203.274475,115.631050 186.201385,111.547714 
	C172.821136,108.538055 160.068451,108.125069 147.244827,109.971725 
	C113.905136,114.772781 88.761444,131.056793 74.386497,162.251205 
	C68.474609,175.080338 65.212723,188.653778 63.998249,202.691635 
	C63.610973,207.168030 62.084309,210.045074 56.912140,209.979919 
	C55.768875,210.594940 54.884075,211.299316 53.999275,212.003708 
	C53.003231,210.143631 51.168541,208.294861 51.143234,206.421677 
	C50.932423,190.815201 54.287910,175.834656 59.815865,161.299728 
	C60.631752,159.154480 61.467590,157.016815 62.614574,154.045761 
	C58.055672,154.045761 54.143024,154.074280 50.230923,154.040054 
	C41.077324,153.959961 31.921350,146.080765 31.103905,136.919754 
	C30.612041,131.407501 30.819088,125.764366 31.371452,120.246048 
	C31.966991,114.296379 39.310875,109.361183 47.211056,109.018471 
	C49.658974,108.912277 52.115395,109.001953 53.727333,109.001953 
	C53.124405,103.006783 52.290844,97.205650 52.001228,91.377495 
	C51.090717,73.054764 63.513252,69.202980 76.937675,71.515640 
	C79.499306,71.956932 81.941559,73.091225 84.661041,73.978241 
	C85.190620,68.287239 85.681961,62.452629 86.288483,56.630020 
	C87.043312,49.383690 95.381828,39.365635 104.244621,38.672874 
	C116.780876,37.692982 125.830612,41.605400 132.506561,52.973366 
	C136.094788,38.349041 138.533859,24.092016 157.649353,22.804653 
	C176.333038,21.546373 183.600586,32.736443 188.356552,48.221352 
	C191.169647,37.760582 195.751999,28.434227 204.930710,23.810959 
	C223.092484,14.662955 242.134537,18.825840 249.976929,39.440086 
	C256.682770,57.066822 256.380554,75.132980 246.392426,91.769859 
	C240.449112,101.669472 231.749344,108.107048 219.226349,107.021881 
	C218.287140,106.940491 217.326660,107.104446 215.315231,107.210045 
	C230.020370,117.729042 243.746719,127.998192 240.978439,148.670013 
	C239.762070,147.768204 238.607025,146.393066 237.135498,144.933044 
	C236.819016,144.848160 236.874832,144.887558 236.874832,144.887558 
M149.568253,91.495628 
	C145.283783,87.419518 140.999298,83.343407 136.579712,79.138763 
	C136.160934,87.611397 133.125351,95.006569 124.888718,100.739372 
	C133.703293,98.924973 141.385040,97.343750 149.990967,95.859535 
	C166.128540,95.696823 182.240524,95.831581 198.237213,100.306602 
	C198.477844,100.363945 198.718491,100.421280 198.959122,100.478622 
	C198.923492,100.372925 198.908981,100.191307 198.848602,100.174492 
	C198.567688,100.096268 198.274048,100.063637 197.898010,99.319527 
	C194.076080,92.017685 190.254150,84.715836 186.775284,78.069435 
	C178.124542,96.147720 164.436172,96.278526 149.568253,91.495628 
M209.500092,90.078117 
	C217.613388,96.084846 225.097412,95.316856 231.997650,87.769447 
	C242.792572,75.962082 244.058090,53.112865 234.632294,40.200409 
	C227.330765,30.197992 216.696335,29.710321 208.465927,39.000496 
	C196.698151,52.283489 196.937668,76.388527 209.500092,90.078117 
M175.006943,51.761745 
	C173.309433,48.191372 172.134277,44.230507 169.813477,41.126099 
	C163.614136,32.833641 154.873795,33.622593 149.773895,42.565662 
	C144.255768,52.242184 145.669052,67.412025 152.879257,75.897629 
	C159.270462,83.419365 167.487122,82.812897 172.410721,74.298637 
	C176.343079,67.498459 176.821533,60.151382 175.006943,51.761745 
M112.000206,89.341599 
	C115.934326,90.025917 118.746429,88.258591 120.894463,85.178940 
	C127.164192,76.189980 123.388962,58.844250 113.952148,53.171108 
	C109.212921,50.322018 104.475960,51.299438 101.305305,55.780640 
	C94.042412,66.045547 99.518860,84.391068 112.000206,89.341599 
M76.185089,109.749481 
	C82.540703,110.520653 85.246017,108.242538 85.157364,101.902725 
	C85.061867,95.073227 82.067421,89.517136 76.296074,86.065231 
	C74.064392,84.730438 70.240387,84.116013 68.101501,85.152962 
	C66.228973,86.060760 64.771088,89.734375 64.751221,92.199257 
	C64.688553,99.975082 68.416969,105.844162 76.185089,109.749481 
M60.005325,136.109131 
	C60.334732,130.160385 57.758041,125.755325 52.535828,123.131485 
	C47.474022,120.588226 42.320148,123.777397 43.444519,129.251617 
	C44.237289,133.111359 46.756004,137.213699 49.702362,139.887161 
	C53.637856,143.458145 57.307686,141.938385 60.005325,136.109131 
M110.685936,106.185455 
	C113.367546,105.065948 116.049149,103.946449 118.779259,102.806686 
	C111.887894,101.870285 105.176544,100.958336 98.012207,99.984840 
	C98.012207,103.498146 98.012207,107.880829 98.012207,112.780289 
	C101.978546,110.708809 105.991493,108.612991 110.685936,106.185455 
M74.951057,134.119873 
	C77.824028,130.798630 80.696991,127.477371 84.296814,123.315857 
	C79.329498,123.315857 75.475914,123.315857 71.658051,123.315857 
	C72.082230,126.519737 72.478287,129.950836 73.050743,133.352249 
	C73.134811,133.851746 74.056778,134.210236 74.951057,134.119873 
z"/>
<path fill="#1A193F" opacity="1.000000" stroke="none" 
	d="
M144.998169,392.032410 
	C150.171204,388.137512 155.327545,386.640503 162.161163,389.619995 
	C172.284134,394.033752 183.298737,395.361206 194.436508,395.088135 
	C222.058716,394.410889 240.104645,377.484528 240.723038,349.808258 
	C240.956390,339.363861 238.475876,328.713348 236.181473,318.390381 
	C232.249512,300.699890 226.750244,283.338440 223.265930,265.572693 
	C218.865295,243.134857 221.361328,220.809021 227.356995,198.812759 
	C230.907043,185.788696 233.971619,172.678696 233.554001,158.966217 
	C233.495911,157.059082 236.256210,155.051437 237.747650,153.117966 
	C238.493134,152.151520 239.319534,151.247482 240.431137,150.118652 
	C244.814362,150.816513 246.654327,153.591003 246.539078,157.495117 
	C246.334198,164.436340 246.591461,171.509491 245.320160,178.276627 
	C242.572876,192.900711 238.500427,207.281601 235.924164,221.929779 
	C234.506226,229.991837 234.315430,238.439896 234.843796,246.631866 
	C235.534409,257.339355 236.645126,268.162384 239.088638,278.580688 
	C242.748413,294.184692 248.629425,309.289948 251.918381,324.953247 
	C256.273560,345.694366 255.835876,366.519867 243.766632,385.072754 
	C235.146683,398.323395 222.218887,405.842834 206.394043,406.851135 
	C195.203140,407.564117 183.836823,407.532288 172.699295,406.379303 
	C165.084900,405.591034 157.542297,402.763153 150.365448,399.862671 
	C148.016632,398.913391 146.919785,394.866272 144.998169,392.032410 
z"/>
<path fill="#1A193F" opacity="1.000000" stroke="none" 
	d="
M282.554504,464.260986 
	C289.930634,475.251343 300.754486,479.530670 312.834442,480.972778 
	C336.456421,483.792786 357.749329,476.828705 376.975403,463.661713 
	C385.427856,457.873077 393.274384,450.937744 400.390106,443.553650 
	C404.943481,438.828613 408.959595,436.140350 415.663208,438.866150 
	C417.283417,445.846039 414.066010,450.603180 409.433563,455.224030 
	C396.115723,468.508484 381.339142,479.597473 363.780426,486.587646 
	C352.628998,491.027069 341.229767,494.574890 328.952911,494.071198 
	C318.041748,493.623596 307.093170,494.998474 296.351562,491.175018 
	C280.162384,485.412598 269.396667,474.568451 263.944000,458.496399 
	C256.123291,435.444366 260.496887,413.033844 267.739594,390.709991 
	C274.304871,370.474182 279.301147,349.850464 279.888794,328.435974 
	C280.020203,323.647156 278.932037,318.820007 279.121796,314.038971 
	C279.301727,309.504486 280.421051,305.007233 281.167877,300.074158 
	C282.508270,302.905731 284.158936,305.186127 288.272461,305.815369 
	C289.807587,306.050201 291.524048,310.101501 291.830017,312.576721 
	C294.229004,331.985809 292.059601,351.148895 287.397003,369.994385 
	C283.844666,384.352448 279.342682,398.472839 275.580414,412.782379 
	C270.864349,430.719635 271.670776,448.061676 282.554504,464.260986 
z"/>
<path fill="#1A193F" opacity="1.000000" stroke="none" 
	d="
M53.998428,212.360886 
	C54.884075,211.299316 55.768875,210.594940 56.810371,210.324066 
	C55.616600,213.684418 56.801826,215.374557 59.194672,217.355240 
	C61.058678,218.898193 62.860447,221.699173 62.954979,224.011963 
	C63.795238,244.569534 67.155563,264.673035 73.321022,284.271301 
	C79.933311,305.289948 88.663376,325.325104 102.036491,343.066254 
	C110.560616,355.517151 120.971725,366.227936 133.463379,374.574432 
	C139.360184,378.514435 143.336029,382.495697 142.187042,390.385559 
	C135.212723,392.058960 129.448074,389.557007 123.877266,385.361237 
	C103.932922,370.339752 88.634285,351.644012 77.029472,329.525177 
	C67.003471,310.415466 59.803837,290.365631 55.505604,269.384735 
	C52.703487,255.706833 51.631706,241.664841 50.008320,227.759842 
	C49.375591,222.340240 49.943703,217.006958 53.998428,212.360886 
z"/>
<path fill="#B2B1F8" opacity="1.000000" stroke="none" 
	d="
M102.327499,342.890717 
	C88.663376,325.325104 79.933311,305.289948 73.321022,284.271301 
	C67.155563,264.673035 63.795238,244.569534 62.954979,224.011963 
	C62.860447,221.699173 61.058678,218.898193 59.194672,217.355240 
	C56.801826,215.374557 55.616600,213.684418 57.068836,210.413437 
	C62.084309,210.045074 63.610973,207.168030 63.998249,202.691635 
	C65.212723,188.653778 68.474609,175.080338 74.386497,162.251205 
	C88.761444,131.056793 113.905136,114.772781 147.244827,109.971725 
	C160.068451,108.125069 172.821136,108.538055 185.805344,111.551010 
	C180.035675,139.501831 174.617950,167.399017 167.667358,194.908920 
	C160.650818,222.679779 151.020950,249.751740 138.722565,275.620270 
	C128.167664,297.821533 115.890533,319.204407 104.339294,340.930176 
	C103.966240,341.631775 103.200951,342.124878 102.327499,342.890717 
M81.756851,169.297455 
	C80.938751,174.853287 79.846680,180.392059 79.499023,185.977173 
	C79.414230,187.339493 81.772316,188.853882 83.007202,190.298340 
	C84.021347,188.859238 85.923645,187.409348 85.906311,185.982773 
	C85.788712,176.301575 88.539726,167.703903 94.184753,159.849915 
	C95.038376,158.662277 94.392159,156.396606 94.439690,154.629608 
	C92.603424,155.065567 89.896683,154.893219 89.089447,156.048325 
	C86.356926,159.958344 84.297287,164.338608 81.756851,169.297455 
M92.836082,297.652771 
	C94.156166,300.317322 95.162971,303.219452 96.927734,305.546814 
	C97.817917,306.720795 100.081627,306.853302 101.724274,307.456726 
	C101.999184,305.706268 103.090614,303.507080 102.415512,302.278748 
	C98.263397,294.724121 96.024277,286.746490 95.328316,278.174622 
	C95.208580,276.699799 92.939156,275.399506 91.662735,274.018585 
	C90.723846,275.525696 88.823402,277.166260 89.010834,278.517090 
	C89.868835,284.701019 91.311676,290.803802 92.836082,297.652771 
z"/>
<path fill="#1D1C4A" opacity="1.000000" stroke="none" 
	d="
M230.856644,367.781799 
	C230.022659,368.850342 229.524338,370.018799 228.722214,370.290558 
	C227.325424,370.763763 225.741257,370.683899 224.235641,370.835876 
	C224.093063,369.212189 223.201340,367.017517 223.931747,366.059235 
	C228.098145,360.592926 229.613205,354.627991 229.028229,347.841522 
	C228.914764,346.525085 230.600052,345.053558 231.455597,343.653595 
	C232.803833,344.797241 235.058243,345.748322 235.349075,347.116699 
	C236.905212,354.438568 235.072174,361.232727 230.856644,367.781799 
z"/>
<path fill="#1A193E" opacity="1.000000" stroke="none" 
	d="
M236.791992,144.827240 
	C236.799408,145.067154 236.833832,145.327988 236.868256,145.588821 
	C236.767136,145.446243 236.666016,145.303680 236.719864,145.024338 
	C236.874832,144.887558 236.819016,144.848160 236.791992,144.827240 
z"/>
<path fill="#1D1B47" opacity="1.000000" stroke="none" 
	d="
M296.601318,446.239197 
	C299.185822,448.543610 301.630402,450.498627 303.660217,452.816772 
	C304.674683,453.975403 304.931641,455.797394 305.531189,457.319336 
	C303.812836,457.720093 301.635681,458.977692 300.466949,458.351929 
	C297.602844,456.818390 295.203979,454.415955 292.337158,452.197083 
	C289.909698,446.876251 287.457916,441.815338 285.823517,436.502960 
	C285.396515,435.115051 287.512177,432.944885 288.460052,431.133972 
	C289.693787,432.577576 291.292480,433.846375 292.085052,435.501282 
	C293.715057,438.904724 294.913879,442.514709 296.601318,446.239197 
z"/>
<path fill="#1E1D46" opacity="1.000000" stroke="none" 
	d="
M306.857971,217.996918 
	C311.359253,214.797272 315.506714,211.603729 320.082611,209.239334 
	C321.250916,208.635666 323.776245,210.658340 325.678101,211.474365 
	C324.337097,212.832077 323.216003,214.946411 321.615540,215.411652 
	C315.822449,217.095688 312.255646,220.556473 310.315643,226.260941 
	C309.817474,227.725784 307.486633,228.567383 305.997711,229.695282 
	C305.323944,228.028748 303.967377,226.286835 304.140991,224.713852 
	C304.383881,222.513596 305.767700,220.439270 306.857971,217.996918 
z"/>
<path fill="#1D1C4A" opacity="1.000000" stroke="none" 
	d="
M435.970062,256.016907 
	C437.824341,263.652039 439.776825,270.872253 441.134155,278.202698 
	C441.447998,279.897766 440.104919,283.258575 438.870056,283.620483 
	C435.491394,284.610718 435.280487,281.505615 434.658173,279.010437 
	C432.611786,270.805145 430.212708,262.684784 428.319397,254.446701 
	C427.903564,252.637329 429.015381,250.476883 429.423706,248.478104 
	C431.091675,249.624466 432.950256,250.580307 434.356812,251.987900 
	C435.214813,252.846512 435.376984,254.400467 435.970062,256.016907 
z"/>
<path fill="#B1B1F6" opacity="1.000000" stroke="none" 
	d="
M295.671387,180.643646 
	C288.628540,180.760681 283.985657,177.194473 280.238586,172.199997 
	C271.587433,160.668869 270.570587,141.530731 277.858582,129.071259 
	C285.474670,116.050888 298.711761,115.176872 307.117706,127.663895 
	C316.238892,141.213501 316.768616,155.724823 309.385559,170.289154 
	C306.658386,175.669037 302.385986,179.597366 295.671387,180.643646 
z"/>
<path fill="#B0B0F5" opacity="1.000000" stroke="none" 
	d="
M366.362549,152.135254 
	C363.780975,156.582779 361.930939,161.229034 358.720673,164.567184 
	C354.055847,169.417847 347.873474,168.565247 343.443390,163.501312 
	C334.897034,153.732193 336.682709,133.031082 346.781158,124.806671 
	C352.429047,120.206894 358.783691,121.073517 363.065826,127.341820 
	C368.196167,134.851654 368.468445,143.174515 366.362549,152.135254 
z"/>
<path fill="#B0B0F5" opacity="1.000000" stroke="none" 
	d="
M398.173920,141.062943 
	C405.895660,136.035431 412.087708,137.968445 414.627533,146.330826 
	C417.557892,155.978897 415.519745,164.840851 408.543854,172.149826 
	C402.281952,178.710739 394.320099,176.961807 391.456543,168.338760 
	C388.078033,158.165222 390.425598,149.045868 398.173920,141.062943 
z"/>
<path fill="#000007" opacity="1.000000" stroke="none" 
	d="
M316.933716,185.928146 
	C317.892303,184.065506 318.940765,182.242950 319.792542,180.332687 
	C322.312927,174.680206 324.755676,168.993088 327.313812,163.124435 
	C331.192017,173.700867 338.513306,180.594284 350.559906,180.877258 
	C362.282135,181.152603 370.788269,175.657761 375.907684,165.795868 
	C378.740631,172.272171 381.557953,178.712799 384.473450,185.377823 
	C383.855988,185.377823 382.192139,185.659851 380.656952,185.334641 
	C363.377197,181.674255 345.984680,182.521805 328.591217,184.018707 
	C324.989990,184.328613 321.448883,185.337021 317.432037,186.004501 
	C316.984009,185.985489 316.933716,185.928146 316.933716,185.928146 
z"/>
<path fill="#8D8EF4" opacity="1.000000" stroke="none" 
	d="
M440.033691,195.240402 
	C432.419983,198.234680 428.385925,195.457245 428.849640,187.684052 
	C429.262268,180.766922 432.540405,175.327301 438.582581,171.894485 
	C444.231415,168.685181 449.010925,171.357422 449.294006,177.804871 
	C449.618561,185.196594 446.381805,190.883499 440.033691,195.240402 
z"/>
<path fill="#8D8DF1" opacity="1.000000" stroke="none" 
	d="
M454.013000,222.638489 
	C453.804871,216.511658 456.333496,212.253540 461.340240,209.699249 
	C466.368225,207.134140 471.005096,210.110519 470.758026,215.712250 
	C470.538177,220.698029 468.114227,224.586227 463.690948,226.987106 
	C459.234070,229.406235 456.270874,228.122284 454.013000,222.638489 
z"/>
<path fill="#000009" opacity="1.000000" stroke="none" 
	d="
M401.174438,191.886993 
	C399.334381,191.131744 397.849792,190.476868 396.365173,189.822006 
	C396.393463,189.520233 396.421753,189.218475 396.450012,188.916702 
	C399.658661,188.916702 402.931061,189.311691 406.058136,188.806778 
	C409.253235,188.290894 412.305756,186.891907 415.687469,185.792801 
	C415.969238,190.313431 416.233673,194.556427 416.536133,199.409668 
	C411.404694,196.871582 406.467316,194.429474 401.174438,191.886993 
z"/>
<path fill="#000009" opacity="1.000000" stroke="none" 
	d="
M429.994446,210.007324 
	C433.919983,209.775650 437.845520,209.543991 442.286713,209.281906 
	C441.777557,213.516663 441.279755,217.657059 440.701202,222.469070 
	C436.978424,218.219681 433.639435,214.408371 430.150208,210.298584 
	C430.000000,210.000122 429.994446,210.007324 429.994446,210.007324 
z"/>
<path fill="#000007" opacity="1.000000" stroke="none" 
	d="
M317.007629,186.015427 
	C316.518250,186.365326 316.005280,186.685287 315.492310,187.005249 
	C315.371338,186.790298 315.250397,186.575348 315.129456,186.360413 
	C315.559296,186.215820 315.989136,186.071228 316.676331,185.927399 
	C316.933716,185.928146 316.984009,185.985489 317.007629,186.015427 
z"/>
<path fill="#000009" opacity="1.000000" stroke="none" 
	d="
M430.003082,209.997772 
	C430.006165,209.995438 429.652679,209.769043 429.652679,209.769043 
	C429.652679,209.769043 429.926636,209.794266 429.960541,209.900787 
	C429.994446,210.007324 430.000000,210.000122 430.003082,209.997772 
z"/>
<path fill="#8E8FF8" opacity="1.000000" stroke="none" 
	d="
M209.234283,89.830139 
	C196.937668,76.388527 196.698151,52.283489 208.465927,39.000496 
	C216.696335,29.710321 227.330765,30.197992 234.632294,40.200409 
	C244.058090,53.112865 242.792572,75.962082 231.997650,87.769447 
	C225.097412,95.316856 217.613388,96.084846 209.234283,89.830139 
z"/>
<path fill="#B0B0F5" opacity="1.000000" stroke="none" 
	d="
M175.087219,52.174232 
	C176.821533,60.151382 176.343079,67.498459 172.410721,74.298637 
	C167.487122,82.812897 159.270462,83.419365 152.879257,75.897629 
	C145.669052,67.412025 144.255768,52.242184 149.773895,42.565662 
	C154.873795,33.622593 163.614136,32.833641 169.813477,41.126099 
	C172.134277,44.230507 173.309433,48.191372 175.087219,52.174232 
z"/>
<path fill="#B0B0F5" opacity="1.000000" stroke="none" 
	d="
M111.638306,89.262177 
	C99.518860,84.391068 94.042412,66.045547 101.305305,55.780640 
	C104.475960,51.299438 109.212921,50.322018 113.952148,53.171108 
	C123.388962,58.844250 127.164192,76.189980 120.894463,85.178940 
	C118.746429,88.258591 115.934326,90.025917 111.638306,89.262177 
z"/>
<path fill="#B0AFF4" opacity="1.000000" stroke="none" 
	d="
M75.823029,109.590294 
	C68.416969,105.844162 64.688553,99.975082 64.751221,92.199257 
	C64.771088,89.734375 66.228973,86.060760 68.101501,85.152962 
	C70.240387,84.116013 74.064392,84.730438 76.296074,86.065231 
	C82.067421,89.517136 85.061867,95.073227 85.157364,101.902725 
	C85.246017,108.242538 82.540703,110.520653 75.823029,109.590294 
z"/>
<path fill="#00000A" opacity="1.000000" stroke="none" 
	d="
M198.006622,99.988663 
	C182.240524,95.831581 166.128540,95.696823 149.671753,95.523918 
	C149.567276,94.129402 149.782028,93.070503 149.996780,92.011604 
	C164.436172,96.278526 178.124542,96.147720 186.775284,78.069435 
	C190.254150,84.715836 194.076080,92.017685 197.948044,99.660759 
	C197.998077,100.001991 198.006622,99.988663 198.006622,99.988663 
z"/>
<path fill="#AFAEF2" opacity="1.000000" stroke="none" 
	d="
M59.945229,136.505493 
	C57.307686,141.938385 53.637856,143.458145 49.702362,139.887161 
	C46.756004,137.213699 44.237289,133.111359 43.444519,129.251617 
	C42.320148,123.777397 47.474022,120.588226 52.535828,123.131485 
	C57.758041,125.755325 60.334732,130.160385 59.945229,136.505493 
z"/>
<path fill="#000006" opacity="1.000000" stroke="none" 
	d="
M149.782516,91.753616 
	C149.782028,93.070503 149.567276,94.129402 149.209671,95.475418 
	C141.385040,97.343750 133.703293,98.924973 124.888718,100.739372 
	C133.125351,95.006569 136.160934,87.611397 136.579712,79.138763 
	C140.999298,83.343407 145.283783,87.419518 149.782516,91.753616 
z"/>
<path fill="#00000B" opacity="1.000000" stroke="none" 
	d="
M110.345184,106.351318 
	C105.991493,108.612991 101.978546,110.708809 98.012207,112.780289 
	C98.012207,107.880829 98.012207,103.498146 98.012207,99.984840 
	C105.176544,100.958336 111.887894,101.870285 118.779259,102.806686 
	C116.049149,103.946449 113.367546,105.065948 110.345184,106.351318 
z"/>
<path fill="#000009" opacity="1.000000" stroke="none" 
	d="
M74.771057,134.376923 
	C74.056778,134.210236 73.134811,133.851746 73.050743,133.352249 
	C72.478287,129.950836 72.082230,126.519737 71.658051,123.315857 
	C75.475914,123.315857 79.329498,123.315857 84.296814,123.315857 
	C80.696991,127.477371 77.824028,130.798630 74.771057,134.376923 
z"/>
<path fill="#00000A" opacity="1.000000" stroke="none" 
	d="
M197.991516,100.008347 
	C198.274048,100.063637 198.567688,100.096268 198.848602,100.174492 
	C198.908981,100.191307 198.923492,100.372925 198.959122,100.478622 
	C198.718491,100.421280 198.477844,100.363945 198.121918,100.147629 
	C198.006622,99.988663 197.998077,100.001991 197.991516,100.008347 
z"/>
<path fill="#1E1D47" opacity="1.000000" stroke="none" 
	d="
M81.868668,168.918304 
	C84.297287,164.338608 86.356926,159.958344 89.089447,156.048325 
	C89.896683,154.893219 92.603424,155.065567 94.439690,154.629608 
	C94.392159,156.396606 95.038376,158.662277 94.184753,159.849915 
	C88.539726,167.703903 85.788712,176.301575 85.906311,185.982773 
	C85.923645,187.409348 84.021347,188.859238 83.007202,190.298340 
	C81.772316,188.853882 79.414230,187.339493 79.499023,185.977173 
	C79.846680,180.392059 80.938751,174.853287 81.868668,168.918304 
z"/>
<path fill="#1F1E47" opacity="1.000000" stroke="none" 
	d="
M92.690277,297.294250 
	C91.311676,290.803802 89.868835,284.701019 89.010834,278.517090 
	C88.823402,277.166260 90.723846,275.525696 91.662735,274.018585 
	C92.939156,275.399506 95.208580,276.699799 95.328316,278.174622 
	C96.024277,286.746490 98.263397,294.724121 102.415512,302.278748 
	C103.090614,303.507080 101.999184,305.706268 101.724274,307.456726 
	C100.081627,306.853302 97.817917,306.720795 96.927734,305.546814 
	C95.162971,303.219452 94.156166,300.317322 92.690277,297.294250 
z"/>
</svg>