<?xml version="1.0" encoding="iso-8859-1"?>
<!-- Uploaded to: SVG Repo, www.svgrepo.com, Generator: SVG Repo Mixer Tools -->
<!DOCTYPE svg PUBLIC "-//W3C//DTD SVG 1.1//EN" "http://www.w3.org/Graphics/SVG/1.1/DTD/svg11.dtd">
<svg fill="#000000" height="800px" width="800px" version="1.1" id="Capa_1" xmlns="http://www.w3.org/2000/svg" xmlns:xlink="http://www.w3.org/1999/xlink" 
	 viewBox="0 0 313.611 313.611" xml:space="preserve">
<path d="M235.269,150.619h-18.702l-0.283,0.008c-0.067,0.004-0.571,0.028-1.409,0.028c-3.565,0-12.738-0.426-20.892-4.375
	c-9.671-4.684-14.373-12.513-14.373-23.935c0-2.489,0.559-95.556,0.489-101.207c-0.04-3.231-0.098-5.734-0.171-7.438
	c-0.115-2.672-0.289-6.71-4.449-7.412c-0.834-0.141-1.656-0.211-2.442-0.211c-5.438,0-8.498,3.308-10.521,5.497
	c-1.934,2.091-2.708,2.768-4.478,2.768c-2.142,0-3.033-0.776-5.019-2.69c-2.404-2.317-5.696-5.489-11.958-5.489
	c-6.261,0-9.553,3.173-11.957,5.489c-1.985,1.914-2.876,2.69-5.018,2.69c-2.141,0-3.032-0.776-5.017-2.69
	c-2.404-2.316-5.696-5.489-11.956-5.489c-6.26,0-9.551,3.173-11.954,5.49c-1.984,1.913-2.875,2.689-5.014,2.689
	c-2.141,0-3.031-0.776-5.017-2.69c-2.404-2.316-5.696-5.489-11.956-5.489c-6.26,0-9.552,3.173-11.955,5.49
	c-1.984,1.913-2.875,2.689-5.015,2.689c-2.14,0-3.031-0.776-5.015-2.689c-2.404-2.317-5.695-5.49-11.955-5.49
	s-9.551,3.173-11.954,5.49c-1.984,1.913-2.875,2.689-5.014,2.689c-1.76,0-2.535-0.684-4.477-2.798
	c-2.03-2.21-5.097-5.552-10.55-5.552c-0.785,0-1.604,0.071-2.436,0.212C0.679,6.9,0.515,10.818,0.406,13.41
	c-0.067,1.606-0.127,3.985-0.177,7.071c-0.093,5.683-0.158,14.018-0.194,24.772c-0.061,18.088-0.042,43.287,0.058,74.898
	c0.168,53.812,0.515,108.295,0.518,108.807v1.155c0,28.788,10.072,49.924,29.937,62.82c15.01,9.745,35.742,14.686,61.621,14.686
	h153.457c16.318,0,33.282-8.46,46.543-23.211c13.827-15.38,21.442-35.03,21.442-55.33v-0.119
	C313.611,185.762,278.467,150.619,235.269,150.619z M135.733,194.828c-16.873,0-30.552-13.678-30.552-30.552
	c0-6.342,1.933-12.233,5.242-17.116L87.345,89.805l-14.571,36.212c4.438,5.304,7.113,12.134,7.113,19.591
	c0,16.873-13.679,30.552-30.552,30.552c-16.873,0-30.552-13.679-30.552-30.552c0-15.3,11.247-27.972,25.924-30.203l14.399-35.786
	H38.611c-8.284,0-15-6.716-15-15s6.716-15,15-15h103c8.284,0,15,6.716,15,15s-6.716,15-15,15h-26.028l21.789,54.151
	c16.111,0.852,28.913,14.184,28.913,30.507C166.285,181.15,152.607,194.828,135.733,194.828z"/>
</svg>