<svg version="1.1" id="Layer_1" xmlns="http://www.w3.org/2000/svg" xmlns:xlink="http://www.w3.org/1999/xlink" x="0px" y="0px"
	 width="100%" viewBox="0 0 512 512" enable-background="new 0 0 512 512" xml:space="preserve">
<path fill="#000000" opacity="1.000000" stroke="none" 
	d="
M1.000000,199.000000 
	C1.000000,132.666672 1.000000,66.833336 1.000000,1.000000 
	C171.666672,1.000000 342.333344,1.000000 513.000000,1.000000 
	C513.000000,171.666672 513.000000,342.333344 513.000000,513.000000 
	C342.333344,513.000000 171.666672,513.000000 1.000000,513.000000 
	C1.000000,408.500000 1.000000,304.000000 1.000000,199.000000 
M210.995560,240.413757 
	C211.663925,237.923767 212.497513,235.464890 212.973404,232.938629 
	C215.702042,218.453415 218.649033,203.999756 220.931335,189.442780 
	C223.126511,175.441513 224.139740,161.325394 222.009888,147.159698 
	C219.067825,127.592056 199.857224,110.550720 180.006592,111.176086 
	C168.799896,111.529137 157.578537,113.234192 146.487793,115.076736 
	C122.296326,119.095734 99.405090,126.663345 79.830040,142.113251 
	C69.749489,150.069473 62.606258,160.436371 61.255150,173.167267 
	C59.748363,187.365112 60.573273,201.814682 65.874123,215.370789 
	C71.327133,229.316010 77.611908,242.933685 83.285301,256.795929 
	C86.450912,264.530731 89.850494,272.291992 91.815483,280.364868 
	C94.262749,290.419098 95.651100,300.769135 96.900948,311.063751 
	C97.773605,318.251648 98.281532,325.600922 97.828056,332.807373 
	C96.985626,346.195007 94.682411,359.507050 94.180855,372.895264 
	C93.685577,386.116180 94.609993,399.394104 95.016029,412.643829 
	C95.377083,424.425323 97.980774,435.781982 102.034416,446.805420 
	C108.372612,464.041504 119.363144,476.957306 137.290115,482.592896 
	C150.084732,486.615082 163.390778,486.050079 176.377396,483.841370 
	C192.115707,481.164703 205.593903,473.633942 214.823730,460.329834 
	C228.240540,440.990540 230.727066,418.908234 226.489243,396.608429 
	C222.829453,377.350128 216.199860,358.672394 211.350998,339.618958 
	C207.087189,322.864319 203.083527,306.002014 203.991043,288.468018 
	C204.357635,281.384796 204.068939,274.205963 205.150452,267.237000 
	C206.508652,258.485168 208.967255,249.904099 210.995560,240.413757 
M418.999969,415.439514 
	C419.333282,401.683075 419.669159,387.926727 419.995209,374.170105 
	C420.022827,373.004517 420.079132,371.827789 419.962219,370.672394 
	C418.659790,357.801666 416.661072,344.957428 416.209045,332.058411 
	C415.841980,321.582642 417.231354,311.035645 418.001343,300.531921 
	C419.216278,283.958832 425.213776,268.782776 432.035034,253.893524 
	C439.756866,237.038452 448.829163,220.609146 451.379822,201.948730 
	C452.736115,192.026443 453.965820,181.659454 452.544922,171.886887 
	C450.502136,157.836731 441.598877,147.259933 430.054260,138.981812 
	C414.390747,127.750191 396.705536,121.264732 378.152008,117.120415 
	C367.387512,114.715942 356.336609,113.619171 345.452911,111.714912 
	C336.015533,110.063713 326.710724,110.417801 318.069702,114.535446 
	C299.991364,123.150200 290.668182,137.671875 291.079041,157.822861 
	C291.300354,168.676239 291.964081,179.552063 293.107391,190.345795 
	C294.132355,200.022354 295.674194,209.689682 297.728821,219.201035 
	C300.828979,233.552521 304.746094,247.725601 307.998505,262.046600 
	C311.669159,278.209045 311.441925,294.793335 308.607727,310.774689 
	C305.210144,329.932678 299.129578,348.616028 294.184875,367.498138 
	C289.850647,384.049103 285.098572,400.549744 286.057739,417.924713 
	C286.353912,423.290222 287.028595,428.677673 288.057220,433.952271 
	C291.875000,453.529541 302.048279,468.705566 320.013000,477.952087 
	C336.622192,486.500977 354.503357,486.781189 372.261871,483.659515 
	C384.353577,481.533936 394.427887,474.952393 402.097443,464.820740 
	C413.000641,450.417389 416.359314,433.555847 418.999969,415.439514 
M281.927856,79.525406 
	C282.634064,80.784691 283.184204,82.167892 284.070465,83.284271 
	C293.924988,95.697601 310.897949,96.804352 320.705170,84.269615 
	C331.227020,70.821465 332.065918,55.738667 323.203308,40.661938 
	C314.982422,26.676882 297.198914,24.596256 286.350098,35.460796 
	C275.137482,46.689674 273.905029,64.993362 281.927856,79.525406 
M223.235672,32.036896 
	C209.004395,24.217361 194.825363,31.180405 188.954407,43.815025 
	C183.325592,55.928555 183.769135,67.744698 189.863419,79.305031 
	C194.514145,88.127083 202.011658,93.484802 212.246445,92.871506 
	C222.790543,92.239677 229.979401,85.889961 233.906372,76.452477 
	C240.270996,61.156719 237.828903,42.879978 223.235672,32.036896 
M135.000214,69.168900 
	C136.463806,73.070007 137.162216,77.540115 139.551300,80.753036 
	C144.429825,87.313828 153.889648,89.895859 161.343887,83.232971 
	C169.257858,76.159164 170.312363,63.645649 164.636063,54.587490 
	C158.183792,44.291054 146.658920,43.020226 139.039658,52.563812 
	C135.417358,57.100967 134.740402,62.622353 135.000214,69.168900 
M357.970459,47.041969 
	C345.547211,52.984722 342.677002,68.800682 349.263794,79.301521 
	C353.748657,86.451408 361.530640,90.347229 370.658295,84.066734 
	C376.385468,80.126045 381.115234,70.258362 378.087646,59.118313 
	C375.579712,49.890507 367.821228,44.695484 357.970459,47.041969 
M400.536499,67.974724 
	C398.370239,72.397362 395.117798,76.629906 394.302399,81.288971 
	C393.190063,87.644577 395.572174,94.363129 401.357117,97.352455 
	C404.956940,99.212631 411.284210,99.253227 414.733490,97.255219 
	C422.930206,92.507233 426.640991,80.781273 421.583282,71.062317 
	C417.293213,62.818501 407.920868,61.142391 400.536499,67.974724 
M113.901535,96.634628 
	C121.888046,88.883072 120.986153,79.778656 116.672348,71.673286 
	C113.731178,66.147003 108.560509,62.752731 101.430687,63.939312 
	C95.967262,64.848557 93.437523,68.651230 91.495331,73.055145 
	C88.716713,79.355659 90.223785,85.595627 93.169121,91.261658 
	C97.108833,98.840614 105.920944,101.141693 113.901535,96.634628 
M57.001606,92.499290 
	C49.396862,100.818069 53.470760,112.681290 60.168453,117.371292 
	C62.501587,119.005051 66.152481,119.387024 69.168625,119.292297 
	C76.933899,119.048416 80.854713,106.868668 77.277161,98.585846 
	C73.165405,89.066231 63.220695,85.772240 57.001606,92.499290 
M443.965729,90.003868 
	C435.519348,95.504707 432.612518,106.237625 437.924652,114.714920 
	C440.483551,118.798492 444.022644,120.202682 448.515228,119.140717 
	C455.863617,117.403679 460.034058,112.840309 460.952759,105.389656 
	C462.130707,95.837372 455.142670,85.758438 443.965729,90.003868 
M463.291321,135.196136 
	C462.527557,140.048889 462.675903,144.687256 467.028809,147.988052 
	C472.044403,151.791306 479.374359,149.983688 483.714630,142.772934 
	C486.956116,137.387619 485.117218,128.023499 480.292786,125.071556 
	C474.516632,121.537292 465.003418,126.854614 463.291321,135.196136 
M43.076385,149.960480 
	C51.413200,145.648605 53.516521,139.393005 49.011932,131.285706 
	C46.503620,126.771286 42.486126,123.250931 37.218803,124.281876 
	C34.254520,124.862061 30.128418,127.853157 29.494902,130.475464 
	C27.343155,139.382172 29.966047,149.014694 43.076385,149.960480 
z"/>
<path fill="#FCBFAB" opacity="1.000000" stroke="none" 
	d="
M210.973267,240.831543 
	C208.967255,249.904099 206.508652,258.485168 205.150452,267.237000 
	C204.068939,274.205963 204.357635,281.384796 203.991043,288.468018 
	C203.083527,306.002014 207.087189,322.864319 211.350998,339.618958 
	C216.199860,358.672394 222.829453,377.350128 226.489243,396.608429 
	C230.727066,418.908234 228.240540,440.990540 214.823730,460.329834 
	C205.593903,473.633942 192.115707,481.164703 176.377396,483.841370 
	C163.390778,486.050079 150.084732,486.615082 137.290115,482.592896 
	C119.363144,476.957306 108.372612,464.041504 102.034416,446.805420 
	C97.980774,435.781982 95.377083,424.425323 95.016029,412.643829 
	C94.609993,399.394104 93.685577,386.116180 94.180855,372.895264 
	C94.682411,359.507050 96.985626,346.195007 97.828056,332.807373 
	C98.281532,325.600922 97.773605,318.251648 96.900948,311.063751 
	C95.651100,300.769135 94.262749,290.419098 91.815483,280.364868 
	C89.850494,272.291992 86.450912,264.530731 83.285301,256.795929 
	C77.611908,242.933685 71.327133,229.316010 65.874123,215.370789 
	C60.573273,201.814682 59.748363,187.365112 61.255150,173.167267 
	C62.606258,160.436371 69.749489,150.069473 79.830040,142.113251 
	C99.405090,126.663345 122.296326,119.095734 146.487793,115.076736 
	C157.578537,113.234192 168.799896,111.529137 180.006592,111.176086 
	C199.857224,110.550720 219.067825,127.592056 222.009888,147.159698 
	C224.139740,161.325394 223.126511,175.441513 220.931335,189.442780 
	C218.649033,203.999756 215.702042,218.453415 212.973404,232.938629 
	C212.497513,235.464890 211.663925,237.923767 210.973267,240.831543 
z"/>
<path fill="#FCBFAB" opacity="1.000000" stroke="none" 
	d="
M419.000031,415.901215 
	C416.359314,433.555847 413.000641,450.417389 402.097443,464.820740 
	C394.427887,474.952393 384.353577,481.533936 372.261871,483.659515 
	C354.503357,486.781189 336.622192,486.500977 320.013000,477.952087 
	C302.048279,468.705566 291.875000,453.529541 288.057220,433.952271 
	C287.028595,428.677673 286.353912,423.290222 286.057739,417.924713 
	C285.098572,400.549744 289.850647,384.049103 294.184875,367.498138 
	C299.129578,348.616028 305.210144,329.932678 308.607727,310.774689 
	C311.441925,294.793335 311.669159,278.209045 307.998505,262.046600 
	C304.746094,247.725601 300.828979,233.552521 297.728821,219.201035 
	C295.674194,209.689682 294.132355,200.022354 293.107391,190.345795 
	C291.964081,179.552063 291.300354,168.676239 291.079041,157.822861 
	C290.668182,137.671875 299.991364,123.150200 318.069702,114.535446 
	C326.710724,110.417801 336.015533,110.063713 345.452911,111.714912 
	C356.336609,113.619171 367.387512,114.715942 378.152008,117.120415 
	C396.705536,121.264732 414.390747,127.750191 430.054260,138.981812 
	C441.598877,147.259933 450.502136,157.836731 452.544922,171.886887 
	C453.965820,181.659454 452.736115,192.026443 451.379822,201.948730 
	C448.829163,220.609146 439.756866,237.038452 432.035034,253.893524 
	C425.213776,268.782776 419.216278,283.958832 418.001343,300.531921 
	C417.231354,311.035645 415.841980,321.582642 416.209045,332.058411 
	C416.661072,344.957428 418.659790,357.801666 419.962219,370.672394 
	C420.079132,371.827789 420.022827,373.004517 419.995209,374.170105 
	C419.669159,387.926727 419.333282,401.683075 419.000031,415.901215 
z"/>
<path fill="#FCA17A" opacity="1.000000" stroke="none" 
	d="
M281.672272,79.237976 
	C273.905029,64.993362 275.137482,46.689674 286.350098,35.460796 
	C297.198914,24.596256 314.982422,26.676882 323.203308,40.661938 
	C332.065918,55.738667 331.227020,70.821465 320.705170,84.269615 
	C310.897949,96.804352 293.924988,95.697601 284.070465,83.284271 
	C283.184204,82.167892 282.634064,80.784691 281.672272,79.237976 
z"/>
<path fill="#FCA17A" opacity="1.000000" stroke="none" 
	d="
M223.570038,32.220192 
	C237.828903,42.879978 240.270996,61.156719 233.906372,76.452477 
	C229.979401,85.889961 222.790543,92.239677 212.246445,92.871506 
	C202.011658,93.484802 194.514145,88.127083 189.863419,79.305031 
	C183.769135,67.744698 183.325592,55.928555 188.954407,43.815025 
	C194.825363,31.180405 209.004395,24.217361 223.570038,32.220192 
z"/>
<path fill="#FCA17A" opacity="1.000000" stroke="none" 
	d="
M135.000092,68.721786 
	C134.740402,62.622353 135.417358,57.100967 139.039658,52.563812 
	C146.658920,43.020226 158.183792,44.291054 164.636063,54.587490 
	C170.312363,63.645649 169.257858,76.159164 161.343887,83.232971 
	C153.889648,89.895859 144.429825,87.313828 139.551300,80.753036 
	C137.162216,77.540115 136.463806,73.070007 135.000092,68.721786 
z"/>
<path fill="#FCA17A" opacity="1.000000" stroke="none" 
	d="
M358.369934,47.022835 
	C367.821228,44.695484 375.579712,49.890507 378.087646,59.118313 
	C381.115234,70.258362 376.385468,80.126045 370.658295,84.066734 
	C361.530640,90.347229 353.748657,86.451408 349.263794,79.301521 
	C342.677002,68.800682 345.547211,52.984722 358.369934,47.022835 
z"/>
<path fill="#FCA17A" opacity="1.000000" stroke="none" 
	d="
M400.795441,67.699326 
	C407.920868,61.142391 417.293213,62.818501 421.583282,71.062317 
	C426.640991,80.781273 422.930206,92.507233 414.733490,97.255219 
	C411.284210,99.253227 404.956940,99.212631 401.357117,97.352455 
	C395.572174,94.363129 393.190063,87.644577 394.302399,81.288971 
	C395.117798,76.629906 398.370239,72.397362 400.795441,67.699326 
z"/>
<path fill="#FCA17A" opacity="1.000000" stroke="none" 
	d="
M113.607086,96.890808 
	C105.920944,101.141693 97.108833,98.840614 93.169121,91.261658 
	C90.223785,85.595627 88.716713,79.355659 91.495331,73.055145 
	C93.437523,68.651230 95.967262,64.848557 101.430687,63.939312 
	C108.560509,62.752731 113.731178,66.147003 116.672348,71.673286 
	C120.986153,79.778656 121.888046,88.883072 113.607086,96.890808 
z"/>
<path fill="#FCA17A" opacity="1.000000" stroke="none" 
	d="
M57.278145,92.230774 
	C63.220695,85.772240 73.165405,89.066231 77.277161,98.585846 
	C80.854713,106.868668 76.933899,119.048416 69.168625,119.292297 
	C66.152481,119.387024 62.501587,119.005051 60.168453,117.371292 
	C53.470760,112.681290 49.396862,100.818069 57.278145,92.230774 
z"/>
<path fill="#FCA17A" opacity="1.000000" stroke="none" 
	d="
M444.350403,89.888229 
	C455.142670,85.758438 462.130707,95.837372 460.952759,105.389656 
	C460.034058,112.840309 455.863617,117.403679 448.515228,119.140717 
	C444.022644,120.202682 440.483551,118.798492 437.924652,114.714920 
	C432.612518,106.237625 435.519348,95.504707 444.350403,89.888229 
z"/>
<path fill="#FCA17A" opacity="1.000000" stroke="none" 
	d="
M463.577881,134.895050 
	C465.003418,126.854614 474.516632,121.537292 480.292786,125.071556 
	C485.117218,128.023499 486.956116,137.387619 483.714630,142.772934 
	C479.374359,149.983688 472.044403,151.791306 467.028809,147.988052 
	C462.675903,144.687256 462.527557,140.048889 463.577881,134.895050 
z"/>
<path fill="#FCA17A" opacity="1.000000" stroke="none" 
	d="
M42.669014,149.978058 
	C29.966047,149.014694 27.343155,139.382172 29.494902,130.475464 
	C30.128418,127.853157 34.254520,124.862061 37.218803,124.281876 
	C42.486126,123.250931 46.503620,126.771286 49.011932,131.285706 
	C53.516521,139.393005 51.413200,145.648605 42.669014,149.978058 
z"/>
</svg>